HIERARCHY
ROOT Hips
{
	OFFSET 0.000000 0.000000 0.000000
	CHANNELS 6 Xposition Yposition Zposition Zrotation Yrotation Xrotation 
	JOINT LHipJoint
	{
		OFFSET 0.000000 0.000000 0.000000
		CHANNELS 3 Zrotation Yrotation Xrotation
		JOINT LeftUpLeg
		{
			OFFSET 1.363060 -1.794630 0.839290
			CHANNELS 3 Zrotation Yrotation Xrotation
			JOINT LeftLeg
			{
				OFFSET 2.448110 -6.726130 0.000000
				CHANNELS 3 Zrotation Yrotation Xrotation
				JOINT LeftFoot
				{
					OFFSET 2.562200 -7.039590 0.000000
					CHANNELS 3 Zrotation Yrotation Xrotation
					JOINT LeftToeBase
					{
						OFFSET 0.157640 -0.433110 2.322550
						CHANNELS 3 Zrotation Yrotation Xrotation
						End Site
						{
							OFFSET 0.000000 0.000000 0.000000
						}
					}
				}
			}
		}
	}
	JOINT RHipJoint
	{
		OFFSET 0.000000 0.000000 0.000000
		CHANNELS 3 Zrotation Yrotation Xrotation
		JOINT RightUpLeg
		{
			OFFSET -1.305520 -1.794630 0.839290
			CHANNELS 3 Zrotation Yrotation Xrotation
			JOINT RightLeg
			{
				OFFSET -2.542530 -6.985550 0.000000
				CHANNELS 3 Zrotation Yrotation Xrotation
				JOINT RightFoot
				{
					OFFSET -2.568260 -7.056230 0.000000
					CHANNELS 3 Zrotation Yrotation Xrotation
					JOINT RightToeBase
					{
						OFFSET -0.164730 -0.452590 2.363150
						CHANNELS 3 Zrotation Yrotation Xrotation
						End Site
						{
							OFFSET 0.000000 0.000000 0.000000
						}
					}
				}
			}
		}
	}
	JOINT LowerBack
	{
		OFFSET 0.000000 0.000000 0.000000
		CHANNELS 3 Zrotation Yrotation Xrotation
		JOINT Spine
		{
			OFFSET 0.028270 2.035590 -0.193380
			CHANNELS 3 Zrotation Yrotation Xrotation
			JOINT Spine1
			{
				OFFSET 0.056720 2.048850 -0.042750
				CHANNELS 3 Zrotation Yrotation Xrotation
				JOINT Neck
				{
					OFFSET 0.000000 0.000000 0.000000
					CHANNELS 3 Zrotation Yrotation Xrotation
					JOINT Neck1
					{
						OFFSET -0.054170 1.746240 0.172020
						CHANNELS 3 Zrotation Yrotation Xrotation
						JOINT Head
						{
							OFFSET 0.104070 1.761360 -0.123970
							CHANNELS 3 Zrotation Yrotation Xrotation
							End Site
							{
								OFFSET 0.000000 0.000000 0.000000
							}
						}
					}
				}
				JOINT LeftShoulder
				{
					OFFSET 0.000000 0.000000 0.000000
					CHANNELS 3 Zrotation Yrotation Xrotation
					JOINT LeftArm
					{
						OFFSET 3.362410 1.200890 -0.311210
						CHANNELS 3 Zrotation Yrotation Xrotation
						JOINT LeftForeArm
						{
							OFFSET 4.983000 -0.000000 -0.000000
							CHANNELS 3 Zrotation Yrotation Xrotation
							JOINT LeftHand
							{
								OFFSET 3.483560 -0.000000 -0.000000
								CHANNELS 3 Zrotation Yrotation Xrotation
								JOINT LeftFingerBase
								{
									OFFSET 0.000000 0.000000 0.000000
									CHANNELS 3 Zrotation Yrotation Xrotation
									JOINT LeftHandIndex1
									{
										OFFSET 0.715260 -0.000000 -0.000000
										CHANNELS 3 Zrotation Yrotation Xrotation
										End Site
										{
											OFFSET 0.000000 0.000000 0.000000
										}
									}
								}
								JOINT LThumb
								{
									OFFSET 0.000000 0.000000 0.000000
									CHANNELS 3 Zrotation Yrotation Xrotation
									End Site
									{
										OFFSET 0.000000 0.000000 0.000000
									}
								}
							}
						}
					}
				}
				JOINT RightShoulder
				{
					OFFSET 0.000000 0.000000 0.000000
					CHANNELS 3 Zrotation Yrotation Xrotation
					JOINT RightArm
					{
						OFFSET -3.136600 1.374050 -0.404650
						CHANNELS 3 Zrotation Yrotation Xrotation
						JOINT RightForeArm
						{
							OFFSET -5.241900 -0.000000 -0.000000
							CHANNELS 3 Zrotation Yrotation Xrotation
							JOINT RightHand
							{
								OFFSET -3.444170 -0.000000 -0.000000
								CHANNELS 3 Zrotation Yrotation Xrotation
								JOINT RightFingerBase
								{
									OFFSET 0.000000 0.000000 0.000000
									CHANNELS 3 Zrotation Yrotation Xrotation
									JOINT RightHandIndex1
									{
										OFFSET -0.622530 -0.000000 -0.000000
										CHANNELS 3 Zrotation Yrotation Xrotation
										End Site
										{
											OFFSET 0.000000 0.000000 0.000000
										}
									}
								}
								JOINT RThumb
								{
									OFFSET 0.000000 0.000000 0.000000
									CHANNELS 3 Zrotation Yrotation Xrotation
									End Site
									{
										OFFSET 0.000000 0.000000 0.000000
									}
								}
							}
						}
					}
				}
			}
		}
	}
}
MOTION
Frames: 4
Frame Time: 0.033333
1.241677 20.275728 -13.113045 91.325292 -32.595718 -31.189688 -106.690101 -44.312997 60.547874 11.459412 15.545444 -44.146471 -50.613537 63.739451 -59.925636 19.239166 3.312550 56.449477 5.128642 1.270253 -72.214524 25.559089 -14.534606 -102.897268 69.729122 -66.923065 -115.418097 118.095224 -62.816798 -115.711786 37.477894 -20.442819 10.363273 -0.789952 -0.065150 -83.390438 -104.789118 65.131549 -19.271437 -169.461951 74.417137 -169.745006 -139.058638 68.379488 -156.393152 14.082130 14.098578 13.558861 12.414319 -14.201297 -1.753146 -0.066003 0.016904 0.077736 99.158471 34.233118 -3.240061 -62.906161 57.200309 -112.351398 -107.632724 35.802623 171.033422 -17.842575 11.233623 -48.182044 33.756970 4.407907 -4.333877 0.086955 -0.185004 0.147896 0.125811 0.122384 -0.033909 61.836377 79.287385 84.692280 -58.754971 72.299625 25.943015 -56.599845 -51.363019 92.914059 9.389312 23.972091 17.732458 18.228536 -44.773727 0.365421 0.058647 -0.027862 -0.008530 -0.135319 0.026404 -0.047539 
1.209512 20.766125 -12.532044 91.632117 -32.569741 -32.948469 -105.049359 -43.235819 59.481206 15.137418 15.107781 -44.566766 -53.450119 65.739899 -63.608064 11.899818 -0.689148 35.205104 4.657099 1.037973 -68.514593 26.173662 -13.694088 -102.882198 70.919811 -65.219158 -118.756146 115.379537 -67.734545 -118.320610 37.375358 -11.292927 -1.138930 -0.719069 -0.027679 -83.675024 -102.025616 65.092849 -14.380514 -165.816904 74.866603 -165.817314 -138.097751 65.223009 -154.866045 14.034407 16.852467 12.074573 19.876200 -13.311794 -3.473568 0.034263 -0.015968 -0.029305 99.563538 31.775412 -2.332423 -59.340054 55.620586 -115.255531 -113.659844 36.332024 164.466942 -12.873395 4.810056 -46.004784 28.813534 0.941335 -5.840880 -0.084271 -0.074328 -0.009767 0.072019 -0.028380 0.005368 53.195285 78.788260 78.408882 -63.761185 65.740244 19.927113 -86.088510 -65.093119 119.120641 -2.633351 31.544255 16.288791 20.643558 -47.940935 15.725035 -0.068895 0.058811 0.020535 0.019298 0.027857 -0.097792 
1.176639 21.097342 -11.980100 91.011626 -32.761882 -32.716961 -104.455748 -41.984021 59.486420 19.713148 19.026336 -45.746259 -61.617404 65.580044 -69.550215 6.015217 -0.218566 24.350511 4.297891 0.765569 -66.397330 27.930683 -13.883117 -105.416235 67.186904 -67.091302 -113.582127 115.497305 -69.142694 -124.149386 35.358114 -7.552768 1.351829 -0.254494 0.026419 -82.658287 -97.133814 64.488970 -7.925422 -162.557221 75.537136 -161.876394 -137.572641 64.473335 -153.626141 12.414529 13.942475 10.857534 20.790195 -15.781477 -2.284271 0.057241 0.015637 0.069048 102.242167 32.138873 1.807593 -51.941108 49.922838 -116.083015 -115.740999 36.489210 163.826998 -8.827463 -4.786574 -44.669765 29.327090 -1.685231 -9.850994 0.062707 0.083942 0.051580 0.046515 0.207714 -0.143803 47.567712 79.431266 73.705899 -65.025567 60.611842 17.990302 -116.614824 -65.221709 145.579019 -6.787272 40.382782 17.270349 22.396681 -54.576589 26.483225 -0.086024 0.152431 -0.132418 -0.134670 0.022560 -0.073690 
1.142467 21.250465 -11.434703 90.992271 -32.962951 -33.212284 -105.930442 -40.028151 60.662028 26.366297 24.123055 -45.846981 -70.216441 65.901539 -73.840178 0.557142 1.100805 21.126135 3.839084 0.633191 -64.098737 29.284466 -14.844531 -106.560497 68.727821 -68.481511 -111.605451 105.210033 -68.313326 -117.195560 34.754165 -5.307298 -3.336775 0.405816 0.154412 -82.223659 -92.420339 64.416368 -1.117483 -158.642333 77.097346 -157.524729 -139.471649 63.629333 -155.164406 12.181939 13.739290 10.252561 19.130846 -10.824898 1.779811 0.125087 0.016491 0.079386 105.437629 30.467419 4.523474 -46.723315 45.491062 -114.893580 -111.544942 35.426849 164.591693 -7.011277 -10.190617 -38.174155 32.141814 -0.512312 -16.259085 -0.043349 -0.082044 -0.009484 0.041980 0.065977 -0.073034 40.241890 79.450004 66.617357 -69.107379 57.830222 13.979849 -135.721837 -62.246121 163.825180 -22.244218 51.372794 7.531321 36.249947 -49.578594 21.002327 -0.184600 0.029112 -0.104097 -0.004781 -0.154458 -0.124710 
